<svg xmlns="http://www.w3.org/2000/svg" width="16" height="19" viewBox="0 0 16 19">
    <g fill="none" fill-rule="evenodd">
        <g fill="#FFF" fill-rule="nonzero">
            <g>
                <g>
                    <path d="M14.286 2.286H12.57V.429c0-.236-.192-.429-.428-.429h-.286c-.236 0-.428.193-.428.429v1.857H4.57V.429C4.571.193 4.38 0 4.143 0h-.286c-.236 0-.428.193-.428.429v1.857H1.714C.768 2.286 0 3.054 0 4v12.571c0 .947.768 1.715 1.714 1.715h12.572c.946 0 1.714-.768 1.714-1.715V4c0-.946-.768-1.714-1.714-1.714zM1.714 3.429h12.572c.314 0 .571.257.571.571v1.714H1.143V4c0-.314.257-.571.571-.571zm12.572 13.714H1.714c-.314 0-.571-.257-.571-.572V6.857h13.714v9.714c0 .315-.257.572-.571.572zm-9-5.714H3.857c-.236 0-.428-.193-.428-.429V9.571c0-.235.192-.428.428-.428h1.429c.235 0 .428.193.428.428V11c0 .236-.193.429-.428.429zm3.428 0H7.286c-.236 0-.429-.193-.429-.429V9.571c0-.235.193-.428.429-.428h1.428c.236 0 .429.193.429.428V11c0 .236-.193.429-.429.429zm3.429 0h-1.429c-.235 0-.428-.193-.428-.429V9.571c0-.235.193-.428.428-.428h1.429c.236 0 .428.193.428.428V11c0 .236-.192.429-.428.429zm-3.429 3.428H7.286c-.236 0-.429-.193-.429-.428V13c0-.236.193-.429.429-.429h1.428c.236 0 .429.193.429.429v1.429c0 .235-.193.428-.429.428zm-3.428 0H3.857c-.236 0-.428-.193-.428-.428V13c0-.236.192-.429.428-.429h1.429c.235 0 .428.193.428.429v1.429c0 .235-.193.428-.428.428zm6.857 0h-1.429c-.235 0-.428-.193-.428-.428V13c0-.236.193-.429.428-.429h1.429c.236 0 .428.193.428.429v1.429c0 .235-.192.428-.428.428z" transform="translate(-482 -1738) translate(150 1693) translate(332 45)"/>
                </g>
            </g>
        </g>
    </g>
</svg>
