<svg xmlns="http://www.w3.org/2000/svg" width="16" height="16" viewBox="0 0 16 16">
    <path fill="#6DD400" d="M8 0C3.582 0 0 3.582 0 8s3.582 8 8 8 8-3.582 8-8-3.582-8-8-8zm0 14.968c-3.828 0-6.968-3.099-6.968-6.968 0-3.828 3.099-6.968 6.968-6.968 3.828 0 6.968 3.099 6.968 6.968 0 3.828-3.099 6.968-6.968 6.968zm4.569-8.87l-5.822 5.775c-.152.15-.397.15-.548-.002L3.43 9.078c-.15-.151-.15-.396.002-.547l.275-.273c.152-.15.397-.15.548.003l2.225 2.243 5.272-5.23c.152-.151.397-.15.547.002l.273.275c.15.151.15.396-.002.547z"/>
</svg>
