<?xml version="1.0" encoding="UTF-8"?>
<svg xmlns="http://www.w3.org/2000/svg" xmlns:xlink="http://www.w3.org/1999/xlink" width="15pt" height="15pt" viewBox="0 0 15 15" version="1.1">
<g id="surface12420939">
<path style=" stroke:none;fill-rule:nonzero;fill:rgb(42.745098%,83.137255%,0%);fill-opacity:1;" d="M 7.5 0 C 3.355469 0 0 3.355469 0 7.5 C 0 11.644531 3.355469 15 7.5 15 C 11.644531 15 15 11.644531 15 7.5 C 15 3.355469 11.644531 0 7.5 0 Z M 7.5 1.25 C 10.953125 1.25 13.75 4.046875 13.75 7.5 C 13.75 10.953125 10.953125 13.75 7.5 13.75 C 4.046875 13.75 1.25 10.953125 1.25 7.5 C 1.25 4.046875 4.046875 1.25 7.5 1.25 Z M 6.835938 2.421875 L 6.5625 7.539062 L 6.621094 8.085938 L 10.46875 11.484375 L 11.074219 10.859375 L 7.890625 7.480469 L 7.617188 2.421875 Z M 6.835938 2.421875 "/>
</g>
</svg>
