<svg xmlns="http://www.w3.org/2000/svg" xmlns:xlink="http://www.w3.org/1999/xlink" width="416" height="258" viewBox="0 0 416 258">
    <defs>
        <linearGradient id="8cgmob0ihc" x1="100%" x2="43.193%" y1="59.114%" y2="32.318%">
            <stop offset="0%" stop-color="#00649C" stop-opacity="0"/>
            <stop offset="45.573%" stop-color="#00649C"/>
            <stop offset="81.941%" stop-color="#00649C" stop-opacity=".2"/>
            <stop offset="100%" stop-color="#00649C"/>
        </linearGradient>
        <linearGradient id="xdx7xi2vnd" x1="100%" x2="43.193%" y1="59.521%" y2="31.528%">
            <stop offset="0%" stop-color="#00649C" stop-opacity="0"/>
            <stop offset="45.573%" stop-color="#00649C"/>
            <stop offset="81.941%" stop-color="#00649C" stop-opacity=".2"/>
            <stop offset="100%" stop-color="#00649C"/>
        </linearGradient>
        <linearGradient id="wjrjn2loke" x1="100%" x2="43.193%" y1="59.961%" y2="30.675%">
            <stop offset="0%" stop-color="#00649C" stop-opacity="0"/>
            <stop offset="45.573%" stop-color="#00649C"/>
            <stop offset="81.941%" stop-color="#00649C" stop-opacity=".2"/>
            <stop offset="100%" stop-color="#00649C"/>
        </linearGradient>
        <linearGradient id="x7yfqrksvf" x1="100%" x2="43.193%" y1="60.449%" y2="29.728%">
            <stop offset="0%" stop-color="#00649C" stop-opacity="0"/>
            <stop offset="45.573%" stop-color="#00649C"/>
            <stop offset="81.941%" stop-color="#00649C" stop-opacity=".2"/>
            <stop offset="100%" stop-color="#00649C"/>
        </linearGradient>
        <linearGradient id="liab40u9gg" x1="100%" x2="43.193%" y1="61.043%" y2="28.576%">
            <stop offset="0%" stop-color="#00649C" stop-opacity="0"/>
            <stop offset="45.573%" stop-color="#00649C"/>
            <stop offset="81.941%" stop-color="#00649C" stop-opacity=".2"/>
            <stop offset="100%" stop-color="#00649C"/>
        </linearGradient>
        <linearGradient id="4138kahtlh" x1="100%" x2="43.193%" y1="61.743%" y2="27.217%">
            <stop offset="0%" stop-color="#00649C" stop-opacity="0"/>
            <stop offset="45.573%" stop-color="#00649C"/>
            <stop offset="81.941%" stop-color="#00649C" stop-opacity=".2"/>
            <stop offset="100%" stop-color="#00649C"/>
        </linearGradient>
        <linearGradient id="5rt9p9bthi" x1="100%" x2="43.193%" y1="62.854%" y2="25.062%">
            <stop offset="0%" stop-color="#00649C" stop-opacity="0"/>
            <stop offset="45.573%" stop-color="#00649C"/>
            <stop offset="81.941%" stop-color="#00649C" stop-opacity=".2"/>
            <stop offset="100%" stop-color="#00649C"/>
        </linearGradient>
        <linearGradient id="37mr1t4dlj" x1="100%" x2="43.193%" y1="64.606%" y2="21.663%">
            <stop offset="0%" stop-color="#00649C" stop-opacity="0"/>
            <stop offset="45.573%" stop-color="#00649C"/>
            <stop offset="81.941%" stop-color="#00649C" stop-opacity=".2"/>
            <stop offset="100%" stop-color="#00649C"/>
        </linearGradient>
        <linearGradient id="a75crjfgfk" x1="100%" x2="43.193%" y1="64.626%" y2="21.624%">
            <stop offset="0%" stop-color="#00649C" stop-opacity="0"/>
            <stop offset="45.573%" stop-color="#00649C"/>
            <stop offset="81.941%" stop-color="#00649C" stop-opacity=".2"/>
            <stop offset="100%" stop-color="#00649C"/>
        </linearGradient>
        <linearGradient id="gztyd1owsl" x1="100%" x2="43.193%" y1="67.095%" y2="16.834%">
            <stop offset="0%" stop-color="#00649C" stop-opacity="0"/>
            <stop offset="45.573%" stop-color="#00649C"/>
            <stop offset="81.941%" stop-color="#00649C" stop-opacity=".2"/>
            <stop offset="100%" stop-color="#00649C"/>
        </linearGradient>
        <linearGradient id="rf7sfkbxfm" x1="100%" x2="43.193%" y1="69.033%" y2="13.073%">
            <stop offset="0%" stop-color="#00649C" stop-opacity="0"/>
            <stop offset="45.573%" stop-color="#00649C"/>
            <stop offset="81.941%" stop-color="#00649C" stop-opacity=".2"/>
            <stop offset="100%" stop-color="#00649C"/>
        </linearGradient>
        <linearGradient id="9t0f07hs0n" x1="100%" x2="43.193%" y1="70.58%" y2="10.072%">
            <stop offset="0%" stop-color="#00649C" stop-opacity="0"/>
            <stop offset="45.573%" stop-color="#00649C"/>
            <stop offset="81.941%" stop-color="#00649C" stop-opacity=".2"/>
            <stop offset="100%" stop-color="#00649C"/>
        </linearGradient>
        <linearGradient id="asoahtovio" x1="100%" x2="43.193%" y1="71.865%" y2="7.579%">
            <stop offset="0%" stop-color="#00649C" stop-opacity="0"/>
            <stop offset="45.573%" stop-color="#00649C"/>
            <stop offset="81.941%" stop-color="#00649C" stop-opacity=".2"/>
            <stop offset="100%" stop-color="#00649C"/>
        </linearGradient>
        <linearGradient id="01hjs4tivp" x1="100%" x2="43.193%" y1="72.853%" y2="5.662%">
            <stop offset="0%" stop-color="#00649C" stop-opacity="0"/>
            <stop offset="45.573%" stop-color="#00649C"/>
            <stop offset="81.941%" stop-color="#00649C" stop-opacity=".2"/>
            <stop offset="100%" stop-color="#00649C"/>
        </linearGradient>
        <linearGradient id="4p0p59o0uq" x1="100%" x2="43.193%" y1="73.869%" y2="3.693%">
            <stop offset="0%" stop-color="#00649C" stop-opacity="0"/>
            <stop offset="45.573%" stop-color="#00649C"/>
            <stop offset="81.941%" stop-color="#00649C" stop-opacity=".2"/>
            <stop offset="100%" stop-color="#00649C"/>
        </linearGradient>
        <path id="qxqcrh624a" d="M0 0H417V258H0z"/>
    </defs>
    <g fill="none" fill-rule="evenodd">
        <g>
            <g>
                <g transform="translate(-1024 -2491) translate(0 2159) matrix(-1 0 0 1 1440 332)">
                    <mask id="xb8gto8jyb" fill="#fff">
                        <use xlink:href="#qxqcrh624a"/>
                    </mask>
                    <use fill="#FFF" fill-opacity="0" xlink:href="#qxqcrh624a"/>
                    <g mask="url(#xb8gto8jyb)">
                        <g>
                            <path fill="url(#8cgmob0ihc)" d="M588.065 284.178l-2.694-.47c8.746-50.53-6.725-124.423-6.875-125.16C541.91 52.61 465.753 17.787 408.306 7.249 345.93-4.2 291.488 9.681 290.944 9.83 213.78 25.645 108.607 62.924 45.376 150.828c-37.752 52.484-42.607 98.699-42.66 99.158L0 249.729c.043-.469 4.972-47.422 43.163-100.503 63.743-88.609 169.59-126.164 247.16-142.053.481-.13 55.426-14.15 118.389-2.638C466.908 15.192 544.058 50.43 581.126 157.81c.204.908 15.78 75.315 6.939 126.367" transform="translate(-175)"/>
                            <path fill="url(#xdx7xi2vnd)" d="M580.603 288.994l-2.716-.32c1.935-16.68 1.058-38.379-2.684-66.335-3.602-26.95-8.467-48.136-9.462-50.71l-.075-.065-.15-.383c-11.033-29.462-25.541-55.25-43.141-76.639C475.878 38.108 413.758 21.171 369.836 16.9c-37.132-3.598-67.068.95-78.21 3.076-3.388.64-5.516 1.153-6.157 1.313-51.545 8.597-91.244 28.746-123.329 47.337-49.428 28.629-87.159 66.366-112.145 112.165-9.698 17.79-22.282 45.863-27.135 78.57-.161 1.069-.268 1.73-.333 1.933l-2.608-.811 1.304.406-1.315-.384c.053-.204.128-.727.246-1.55 4.908-33.102 17.631-61.485 27.445-79.467C72.82 133.241 110.905 95.15 160.772 66.255c32.289-18.708 72.265-38.997 123.937-47.593.77-.193 2.94-.716 6.405-1.378 11.258-2.145 41.473-6.737 78.98-3.096 44.445 4.314 107.302 21.464 154.4 78.625 17.779 21.623 32.448 47.667 43.59 77.406l-.065.022c2.053 4.506 7.003 30.134 9.9 51.735 3.774 28.181 4.651 50.104 2.684 67.018" transform="translate(-175)"/>
                            <path fill="url(#wjrjn2loke)" d="M573.13 293.789l-2.737-.129c.886-18.16-1.946-36.46-5.028-54.303-4.256-24.632-9.087-48.678-19.703-71.393-9.752-20.869-21.76-40.764-36.395-58.59-45.77-55.676-105.356-73.68-147.288-78.977-37.882-4.772-67.85-.34-76.115 1.154-3.111.556-5.132 1.026-5.923 1.206l-.417.096c-48.198 7.924-82.123 28.138-115.48 49.921-44.265 28.906-76.382 65.224-98.173 111.034-16.7 35.1-21.094 63.653-22.74 74.406-.343 2.243-.535 3.481-.738 4.123l-2.61-.813c.14-.437.354-1.89.643-3.727 1.667-10.86 6.105-39.702 22.966-75.164 22.024-46.279 54.452-82.96 99.154-112.144 33.605-21.954 67.807-42.317 116.508-50.326 1.07-.256 3.143-.736 6.318-1.302 8.383-1.507 38.704-6.001 76.949-1.175 42.424 5.36 102.716 23.577 149.063 79.958 14.953 18.19 27.82 38.245 37.498 59.725 9.279 20.591 13.895 42.223 17.907 64.347 3.646 20.108 7.26 43.194 6.34 62.073" transform="translate(-175)"/>
                            <path fill="url(#x7yfqrksvf)" d="M563.365 298.604c-2.533-20.91-6.407-41.658-11.59-62.073-2.845-11.21-5.394-22.598-9.153-33.547-4.864-14.168-13.005-28.18-20.53-41.13-7.66-13.182-16.262-25.833-25.921-37.636-45.11-55.005-102.149-74.044-142.05-80.345-29.777-4.676-57.779-3.46-74.04-.747-2.887.481-4.834.918-5.7 1.111l-.513.116c-47.76 7.754-79.91 31.705-105.752 50.958l-2.17 1.613c-51.278 38.152-72.618 80.984-84.208 109.889-12.499 31.193-16.368 57.022-18.23 69.431-.534 3.578-.887 5.937-1.26 7.123l-2.61-.812c.3-.982.663-3.385 1.166-6.718 1.871-12.514 5.774-38.548 18.39-70.049 11.718-29.204 33.283-72.494 85.127-111.065l2.16-1.612c26.076-19.423 58.526-43.6 106.917-51.448l.385-.085c.888-.204 2.876-.651 5.848-1.142 16.487-2.745 44.799-3.994 74.917.747 40.372 6.364 98.086 25.627 143.739 81.304 14.896 18.166 26.743 38.219 37.495 59.03 11.192 21.666 16.72 45.344 22.003 68.985 3.547 15.882 7.108 31.86 7.884 48.112-.766.015-1.532.028-2.304-.01" transform="translate(-175)"/>
                            <path fill="url(#liab40u9gg)" d="M555.456 303.687c-1.679-12.557-6.415-28.105-10.98-43.151-.878-2.883-1.755-5.756-2.61-8.597-6.361-21.126-13.408-40.603-23.89-60.051-10.024-18.6-21.547-36.45-34.914-52.839C438.552 84.622 384.1 64.59 346.25 57.37c-29.37-5.616-56.44-5.05-71.944-2.658-2.62.395-4.458.79-5.4.993-.351.075-.597.117-.714.14-44.81 7.186-73.1 31.66-95.842 51.33l-4.5 3.876c-43.217 37.108-60.237 77.61-70.235 108.748-8.65 26.93-11.74 49.643-13.59 63.205-.779 5.66-1.281 9.386-1.913 11.404l-2.608-.812c.556-1.793 1.08-5.637 1.807-10.956 1.86-13.657 4.982-36.51 13.695-63.675 10.115-31.49 27.328-72.44 71.069-109.986l4.49-3.877c22.987-19.894 51.608-44.645 97.188-51.949l.577-.128c.973-.202 2.865-.608 5.559-1.025 15.707-2.424 43.153-3.011 72.875 2.679 38.287 7.316 93.381 27.584 138.415 82.64 11.129 13.608 20.967 28.267 29.747 43.483 6.69 11.59 13.549 23.176 18.555 35.62 4.504 11.204 7.588 23.158 11.015 34.728.846 2.85 1.722 5.714 2.589 8.596 4.608 15.142 9.365 30.807 11.087 43.579l-2.716.362z" transform="translate(-175)"/>
                            <path fill="url(#4138kahtlh)" d="M548.015 308.748c-2.364-8.98-6.598-19.679-11.066-30.999-2.085-5.253-4.202-10.602-6.18-15.92l-3.187-8.618c-13.19-35.827-33.527-69.67-57.618-99.33-44.007-53.935-95.84-74.93-131.57-83.033-29.018-6.59-55.106-6.697-69.872-4.56-2.49.352-4.276.715-5.239.918l-.748.139c-42.81 6.769-67.678 32.205-87.662 52.644-1.742 1.772-3.443 3.502-5.1 5.178-35.656 35.902-48.133 72.934-56.291 107.605-5.207 22.083-7.324 41.102-8.874 54.983-.941 8.372-1.615 14.426-2.63 17.684l-2.61-.813c.93-3 1.594-8.948 2.513-17.18 1.476-13.167 3.689-33.06 8.928-55.293 8.265-35.067 20.892-72.526 57.018-108.909 1.658-1.664 3.347-3.394 5.079-5.167 20.272-20.726 45.504-46.515 89.19-53.424l.632-.127c1.005-.204 2.833-.577 5.41-.951 15.011-2.124 41.504-2.06 70.853 4.602 36.16 8.212 88.591 29.44 133.092 83.975 15.512 19.092 30.213 41.77 43.683 67.418 7.015 13.358 12.353 27.179 17.569 41.298 1.977 5.306 4.083 10.635 6.158 15.878 4.502 11.404 8.767 22.168 11.173 31.298l-2.651.704z" transform="translate(-175)"/>
                            <path fill="url(#5rt9p9bthi)" d="M121.843 316.48l-2.609-.812c1.486-4.783 2.16-14.191 3.015-26.11.877-12.256 1.968-27.516 4.373-44.205 4.95-34.29 12.337-70.863 42.96-107.83 1.528-1.837 3.09-3.77 4.704-5.756 16.785-20.684 39.762-49.014 82.155-55.613l.813-.16c1.047-.191 2.79-.534 5.141-.844 14.338-1.867 39.946-1.132 68.835 6.535 33.967 9.023 83.715 31.149 127.744 85.298 12.516 15.393 23.713 31.848 34.085 48.742 19.089 31.092 34.2 64.24 50.146 97.022l-2.89 1.11-26.496-55.323c-15.219-31.775-34.735-62.407-56.962-89.82-43.58-53.585-92.751-75.463-126.334-84.38-28.515-7.582-53.736-8.32-67.763-6.471-2.289.3-3.977.619-4.982.821-.407.075-.718.14-.92.172-41.345 6.438-63.947 34.287-80.444 54.63-1.615 1.996-3.187 3.93-4.716 5.788-30.172 36.413-37.474 72.56-42.36 106.462-2.396 16.604-3.486 31.8-4.362 44.017-.899 12.557-1.551 21.634-3.133 26.727" transform="translate(-175)"/>
                            <path fill="url(#37mr1t4dlj)" d="M141.697 327.51l-2.61-.81c2.268-7.283 2.429-20.738 2.631-37.77.12-9.161.246-19.564.74-30.37 1.388-30.411 3.11-68.265 28.888-106.73 1.208-1.814 2.458-3.726 3.752-5.69 14.402-21.998 34.117-52.12 75.698-58.507l.94-.16c1.07-.193 2.727-.48 4.919-.748 17.46-2.082 43.087 1.165 66.812 8.468 45.482 14 87.811 43.953 122.409 86.623 11.318 13.957 21.689 28.675 31.594 43.657 11.91 18.017 22.931 36 33.529 54.785 5.636 10.027 12.147 19.34 17.898 27.55 2.438 3.472 4.694 6.696 6.629 9.61l-2.287 1.518c-1.915-2.905-4.159-6.108-6.587-9.557-5.784-8.265-12.338-17.64-18.048-27.775-2.705-4.816-5.228-9.588-7.558-14.009-8.286-15.699-18.855-30.203-28.728-44.928-8.996-13.415-18.417-26.56-28.569-39.133-34.256-42.242-76.126-71.886-121.094-85.734-23.383-7.188-48.551-10.39-65.679-8.362-2.118.256-3.721.545-4.759.726-.438.085-.78.139-1.026.182-40.35 6.193-59.681 35.72-73.804 57.288-1.295 1.975-2.546 3.887-3.775 5.714-25.34 37.833-27.05 75.26-28.418 105.341-.493 10.764-.621 21.133-.739 30.273-.202 17.255-.374 30.882-2.758 38.548" transform="translate(-175)"/>
                            <path fill="url(#a75crjfgfk)" d="M160.947 320.681c.211-9.717-.666-20.22-1.598-33.267-.352-5.072-.726-10.305-1.059-15.623l-.213-3.524c-1.903-30.582-4.064-65.233 15.01-102.115.813-1.572 1.648-3.205 2.503-4.891 11.302-22.265 28.376-55.912 69.55-62.127l.812-.128c1.08-.181 2.759-.47 4.95-.704 17.065-1.827 41.27 2.06 64.803 10.4 42.146 14.917 82.636 45.34 117.074 87.957 6.137 7.624 11.504 15.879 17.192 24.613 6.286 9.651 12.586 19.337 19.981 28.192 19.958 23.899 35.132 51.057 57.936 72.596l-1.844 1.88c-12.006-11.191-22.75-23.73-31.968-37.303-14.705-21.652-32.034-41.789-46.403-63.881-5.645-8.67-10.98-16.87-17.033-24.389-34.117-42.223-74.178-72.335-115.855-87.081-22.815-8.085-47.204-12.025-63.583-10.273-2.118.234-3.742.513-4.79.685l-.866.149c-39.773 5.99-55.811 37.576-67.518 60.641-.856 1.709-1.69 3.343-2.502 4.923-18.732 36.2-16.604 70.455-14.722 100.685l.225 3.525c.32 5.317.694 10.538 1.058 15.6 1.032 14.535 2.044 26.031 1.526 36.45" transform="translate(-175)"/>
                            <path fill="url(#gztyd1owsl)" d="M182.925 342.303l-2.533-2.15c1.988-13.979-1.873-30.806-5.615-51.628l-1.828-10.134c-5.581-30.54-11.333-62.127 1.913-97.889l1.166-3.182c8.842-24.121 22.208-60.566 63.456-66.686l.845-.128c1.122-.17 2.758-.438 4.842-.629 16.402-1.591 39.86 3.075 62.772 12.334 39.228 15.866 76.819 45.916 111.739 89.29 5.549 6.93 10.799 14.609 15.866 22.03 12.011 17.588 25.99 33.698 39.754 49.915 13.793 16.253 26.723 31.5 44.75 43.354l-1.152 2.042c-18.182-9.89-32.034-25.872-44.922-41.692-13.901-17.064-28.286-33.868-40.696-52.071-5.271-7.73-10.253-15.024-15.74-21.869-34.618-43.012-71.836-72.773-110.625-88.46-22.518-9.118-45.59-13.625-61.489-12.162-2.01.204-3.593.45-4.672.62l-.877.139c-39.634 5.873-52.656 41.4-61.273 64.913l-1.177 3.182c-12.99 35.068-7.303 66.28-1.796 96.457l1.839 10.145c3.785 21.036 7.494 39.845 5.453 54.26" transform="translate(-175)"/>
                            <path fill="url(#rf7sfkbxfm)" d="M199.788 355.106c2.705-15.278-3.079-35.393-9.754-56.832-.78-2.498-1.571-5.018-2.373-7.538-9.399-29.698-19.117-60.409-11.013-95.87 5.72-25.042 15.226-66.635 57.19-72.732l.481-.075c1.187-.169 2.909-.437 5.112-.618 16.111-1.238 38.243 3.919 60.75 14.288 35.999 16.583 70.8 46.225 106.393 90.605 4.865 6.087 9.58 12.675 14.134 19.05 12.66 17.72 26.493 34.67 41.962 50.032 14.657 14.549 30.416 28.423 49.805 36.163l-1.026 2.541c-.16.394-13.8-6.624-14.773-7.18-6.396-3.667-12.096-7.802-17.533-12.752-22.47-20.457-42.992-42.503-60.658-67.213-4.545-6.343-9.228-12.91-14.05-18.933-35.315-44.049-69.795-73.423-105.41-89.836-22.077-10.177-43.697-15.324-59.382-14.031-2.105.17-3.773.415-4.907.598l-.502.074c-40.105 5.82-49.353 46.27-54.87 70.445-7.986 34.918 1.614 65.266 10.906 94.62.801 2.53 1.593 5.041 2.373 7.55 7.363 23.654 13.45 43.265 9.619 59.345" transform="translate(-175)"/>
                            <path fill="url(#9t0f07hs0n)" d="M219.227 367.596c4.258-17.415-4.673-37.293-13.323-55.939l-2.62-5.628c-13.844-29.676-28.172-60.364-24.847-96.671 1.721-18.986 6.308-69.43 49.717-75.602 1.294-.182 3.154-.439 5.505-.598 1.274-.086 2.567-.128 3.871-.128 20.422 0 42.874 10.08 54.859 16.36 42.104 22.008 76.126 60.683 101.059 91.908 3.923 4.933 7.827 10.154 11.588 15.215 17.783 23.828 37.968 46.247 62.442 63.478 11.165 7.86 23.692 14.132 37.15 16.47l-.39 2.695c-.103.71-18.512-5.696-20.246-6.463-6.909-3.058-13.505-6.835-19.563-11.352-23.86-17.826-43.863-39.436-61.584-63.204-3.753-5.03-7.644-10.24-11.536-15.132-24.773-31.02-58.537-69.419-100.181-91.202-21.577-11.288-41.997-17.022-57.287-15.911-2.277.139-4.052.396-5.302.576-36.984 5.254-44.756 44.261-47.387 73.146-3.249 35.57 10.917 65.917 24.613 95.261l2.62 5.628c8.848 19.083 17.857 40.384 13.372 58.659" transform="translate(-175)"/>
                            <path fill="url(#asoahtovio)" d="M241.56 380.636l-2.484-1.383c5.785-18.622-5.215-35.869-17.232-54.534-18.721-29.089-39.934-62.063-41.57-101.166-1.122-26.953 2.866-72.998 42.243-78.476 1.219-.17 3.101-.404 5.42-.523 19.834-.981 41.827 9.322 56.72 18.175 37.784 22.435 68 58.357 95.702 93.22 2.64 3.343 5.271 6.74 7.9 10.146 10.981 14.213 22.335 28.906 36.096 40.364 7.324 6.097 18.39 15.324 30.482 22.22 12.745 7.273 27.746 11.726 42.233 12.536l-.15 2.735c-14.904-.834-30.332-5.414-43.451-12.9-12.285-7.015-23.468-16.338-30.868-22.498-13.984-11.64-25.436-26.46-36.502-40.79-2.629-3.396-5.249-6.782-7.878-10.114-27.554-34.661-57.576-70.369-94.953-92.57-14.584-8.649-35.85-18.656-55.202-17.79-2.202.107-4.01.342-5.164.502-37.24 5.178-40.981 49.621-39.89 75.656 1.604 38.357 22.602 70.999 41.14 99.799 12.372 19.21 23.534 37.702 17.408 57.39" transform="translate(-175)"/>
                            <path fill="url(#01hjs4tivp)" d="M261.42 391.834l-2.464-1.418c6.243-20.097-6.835-35.761-21.14-52.42-25.008-29.087-49.064-61.336-55.672-100.035-3.614-21.142-3.047-49.716 9.324-66.546 6.158-8.36 14.7-13.336 25.402-14.79 1.807-.245 3.56-.384 5.347-.447 15.727-.523 34.117 6.246 54.709 20.14 33.743 22.754 60.088 56.156 85.565 88.459l6.93 8.776c20.276 25.689 42.997 51.95 74.136 64.892 14.583 6.065 30.47 8.799 45.877 7.71l.193 2.733c.061.877-20.332-.677-22.143-.95-7.631-1.152-15.145-3.137-22.343-5.92-33.259-12.854-56.443-39.501-77.881-66.778l-6.918-8.777c-26.515-33.616-51.565-65.361-84.956-87.882-19.373-13.082-36.671-19.702-51.438-19.702-.556 0-1.1.011-1.646.03-1.69.055-3.347.195-5.068.429-9.933 1.346-17.866 5.958-23.553 13.7-11.879 16.136-12.35 43.877-8.843 64.455 6.501 38.046 30.3 69.932 55.052 98.732 14.83 17.244 28.17 34.24 21.53 55.609" transform="translate(-175)"/>
                            <path fill="url(#4p0p59o0uq)" d="M281.097 403.747l-2.55-1.567c6.97-22.414-9.33-37.2-24.769-50.974-37.036-33.027-59.851-65.372-69.763-98.903-6.586-22.274-7.911-54.064 4.748-71.225 6.392-8.67 15.716-13.155 27.712-13.326h.674c15.406 0 32.91 7.433 52.026 22.094 28.023 21.548 49.77 49.953 70.79 77.428 4.714 6.173 9.43 12.333 14.208 18.41 26.792 34.061 58.83 64.673 104.545 66.737 7.724.35 15.488-.074 23.115-1.354l.449 2.69c-16.327 2.777-33.904 1.742-50.744-2.946-34.356-9.541-58.303-36.413-79.525-63.44-4.778-6.086-9.494-12.258-14.23-18.43-20.913-27.337-42.541-55.603-70.276-76.928-18.892-14.49-36.074-21.741-50.989-21.527-11.098.16-19.694 4.26-25.553 12.217-12.104 16.4-10.724 47.177-4.32 68.83 9.75 33.02 32.31 64.957 68.951 97.645 16.07 14.33 32.963 30.607 25.5 54.569" transform="translate(-175)"/>
                        </g>
                    </g>
                </g>
            </g>
        </g>
    </g>
</svg>
