<svg xmlns="http://www.w3.org/2000/svg" width="24" height="16" viewBox="0 0 24 16">
    <defs>
        <linearGradient id="jllueyvcya" x1="0%" x2="100%" y1="29.499%" y2="70.501%">
            <stop offset="0%" stop-color="#86B8CC"/>
            <stop offset="100%" stop-color="#00649C"/>
        </linearGradient>
    </defs>
    <g fill="none" fill-rule="evenodd">
        <g fill="url(#jllueyvcya)" fill-rule="nonzero" transform="translate(-159 -2484)">
            <g>
                <g>
                    <g>
                        <path d="M8.94 4.544l3.116-3.048c.113-.108.255-.168.405-.168h3.788c.161 0 .311.068.427.192l2.277 2.364H23.7c.165 0 .3-.144.3-.32v-.64c0-.176-.135-.32-.3-.32h-4.256L17.524.608c-.341-.364-.791-.564-1.271-.564h-3.788c-.39 0-.754.156-1.061.4-.315-.26-.701-.412-1.099-.412H7.699c-.476 0-.934.204-1.275.564L4.552 2.6H.3c-.165 0-.3.144-.3.32v.64c0 .176.135.32.3.32h4.748L7.27 1.508c.113-.12.266-.188.424-.188h2.606c.034.088.011.028.041.116L8.13 3.6c-1.058 1.036-1.11 2.768-.158 3.876.537.624 2.198 1.572 3.634.168l.855-.836 4.71 4.076c.255.22.297.628.087.9l-.357.468c-.202.264-.577.324-.843.092l-.668-.576-1.556 2.04c-.281.372-.788.408-1.103.136L11.584 12.9l-.39.512c-.627.82-1.763.948-2.498.316l-3.371-3.444H.3c-.165 0-.3.144-.3.32v.64c0 .176.135.32.3.32h4.545l3.056 3.12c1.118.964 2.693.936 3.788-.008l.27.248c.36.312.799.476 1.256.476.6 0 1.166-.28 1.553-.784l.82-1.076c.616.356 1.61.36 2.25-.48l.357-.468c.232-.304.36-.664.394-1.028H23.7c.165 0 .3-.144.3-.32v-.64c0-.176-.135-.32-.3-.32h-5.445c-.094-.14-.199-.276-.33-.392l-4.571-3.96 1.065-1.044c.243-.24.262-.644.037-.904s-.604-.276-.847-.04l-2.816 2.752c-.54.524-1.448.48-1.94-.088-.505-.588-.472-1.516.087-2.064z" transform="translate(0 2159) translate(150 312) translate(9 13)"/>
                    </g>
                </g>
            </g>
        </g>
    </g>
</svg>
