<svg xmlns="http://www.w3.org/2000/svg" width="24" height="20" viewBox="0 0 24 20">
    <defs>
        <linearGradient id="6s65i0hqla" x1="0%" x2="100%" y1="16.337%" y2="83.663%">
            <stop offset="0%" stop-color="#86B8CC"/>
            <stop offset="100%" stop-color="#00649C"/>
        </linearGradient>
    </defs>
    <g fill="none" fill-rule="evenodd">
        <g fill="url(#6s65i0hqla)" fill-rule="nonzero" transform="translate(-159 -2630)">
            <g>
                <g>
                    <g>
                        <path d="M12 2.462c-2.318.003-4.197 1.93-4.2 4.307 0 .34.269.616.6.616.331 0 .6-.276.6-.616.002-1.698 1.344-3.075 3-3.077.331 0 .6-.275.6-.615 0-.34-.269-.615-.6-.615zM12 0C8.14 0 5.396 3.213 5.4 6.778c0 1.636.58 3.216 1.633 4.444C7.997 12.346 8.92 14.18 9 14.77l.002 2.892c0 .121.035.24.101.34l.919 1.417c.111.171.298.274.499.274h2.957c.201 0 .389-.103.5-.274L14.897 18c.065-.1.1-.219.1-.34L15 14.77c.084-.605 1.012-2.431 1.966-3.548 1.706-1.998 2.115-4.835 1.044-7.253C16.94 1.551 14.59 0 12 0zm1.798 17.473l-.642.989h-2.314l-.64-.989v-.242H13.8l-.001.242zM13.8 16h-3.6l-.002-1.23H13.8V16zm2.265-5.589c-.525.614-1.362 1.85-1.896 3.127H9.833c-.535-1.278-1.372-2.513-1.897-3.127C7.075 9.403 6.6 8.11 6.602 6.77 6.596 3.808 8.866 1.231 12 1.231c2.978 0 5.4 2.484 5.4 5.538 0 1.34-.475 2.634-1.336 3.642h.001zM3.6 6.77c0-.34-.269-.615-.6-.615H.6c-.331 0-.6.275-.6.615 0 .34.269.616.6.616H3c.331 0 .6-.276.6-.616zm16.2-4.307c.093 0 .185-.023.268-.065l2.4-1.231c.297-.152.417-.522.269-.826-.149-.304-.51-.427-.805-.275l-2.4 1.23c-.25.128-.38.415-.316.693.064.277.306.474.584.474zm3.6 3.692H21c-.331 0-.6.275-.6.615 0 .34.269.616.6.616h2.4c.331 0 .6-.276.6-.616 0-.34-.269-.615-.6-.615zM4.469 1.296L2.068.065c-.297-.152-.657-.029-.806.275-.148.304-.028.674.269.826l2.4 1.23c.083.043.175.065.268.066.278 0 .52-.197.584-.474.064-.278-.067-.565-.316-.692zm18 11.077l-2.4-1.231c-.297-.152-.658-.029-.806.275-.148.304-.028.674.268.826l2.4 1.23c.297.153.658.03.806-.274.148-.304.028-.674-.268-.826zM4.2 11.077c-.093 0-.185.022-.268.065l-2.4 1.23c-.192.1-.318.295-.331.514-.013.22.09.43.268.551.18.121.408.135.6.037l2.4-1.23c.249-.128.38-.415.316-.693-.064-.278-.306-.474-.585-.474z" transform="translate(0 2159) translate(150 460) translate(9 11)"/>
                    </g>
                </g>
            </g>
        </g>
    </g>
</svg>
