<svg xmlns="http://www.w3.org/2000/svg" width="20" height="24" viewBox="0 0 20 24">
    <defs>
        <linearGradient id="tvtmdvw55a" x1="12.495%" x2="87.505%" y1="0%" y2="100%">
            <stop offset="0%" stop-color="#86B8CC"/>
            <stop offset="100%" stop-color="#00649C"/>
        </linearGradient>
    </defs>
    <g fill="none" fill-rule="evenodd">
        <g fill="url(#tvtmdvw55a)" fill-rule="nonzero" transform="translate(-161 -2554)">
            <g>
                <g>
                    <g>
                        <path d="M15.68 14.404c-1.275 0-2.415.563-3.199 1.454L8.227 13.17c.428-1.054.432-2.242 0-3.295l4.254-2.688c.784.892 1.924 1.454 3.198 1.454 2.361 0 4.276-1.935 4.276-4.32C19.955 1.935 18.04 0 15.68 0c-2.36 0-4.276 1.936-4.276 4.321 0 .585.116 1.139.32 1.648L7.47 8.656c-.78-.891-1.92-1.454-3.194-1.454C1.916 7.202 0 9.137 0 11.523c0 2.386 1.915 4.321 4.276 4.321 1.274 0 2.414-.562 3.198-1.454l4.254 2.688c-.21.508-.32 1.062-.32 1.647 0 2.386 1.915 4.321 4.276 4.321 2.36 0 4.276-1.935 4.276-4.32-.005-2.387-1.92-4.322-4.28-4.322zm0-12.964c1.572 0 2.85 1.292 2.85 2.881 0 1.59-1.278 2.881-2.85 2.881-1.573 0-2.851-1.292-2.851-2.88 0-1.59 1.278-2.882 2.85-2.882zM4.275 14.404c-1.572 0-2.85-1.292-2.85-2.88 0-1.59 1.278-2.882 2.85-2.882 1.573 0 2.85 1.292 2.85 2.881 0 1.59-1.277 2.88-2.85 2.88zm11.403 7.202c-1.572 0-2.85-1.292-2.85-2.88 0-1.59 1.278-2.882 2.85-2.882 1.573 0 2.851 1.292 2.851 2.881 0 1.59-1.278 2.88-2.85 2.88z" transform="translate(0 2159) translate(150 386) translate(11 9)"/>
                    </g>
                </g>
            </g>
        </g>
    </g>
</svg>
